<svg width="32" height="48" viewBox="0 0 32 48" fill="none" xmlns="http://www.w3.org/2000/svg">
<g id="figma">
<path id="vector" fill-rule="evenodd" clip-rule="evenodd" d="M16.1243 23.9323C16.1243 19.6519 19.5942 16.182 23.8746 16.182C28.1551 16.182 31.625 19.6519 31.625 23.9323C31.625 28.2127 28.1551 31.6827 23.8746 31.6827C19.5942 31.6827 16.1243 28.2127 16.1243 23.9323Z" fill="#1ABCFE"/>
<path id="vector_2" fill-rule="evenodd" clip-rule="evenodd" d="M0.623535 39.4331C0.623535 35.1527 4.09349 31.6827 8.37391 31.6827H16.1243V39.4331C16.1243 43.7135 12.6543 47.1835 8.37391 47.1835C4.09349 47.1835 0.623535 43.7135 0.623535 39.4331Z" fill="#0ACF83"/>
<path id="vector_3" fill-rule="evenodd" clip-rule="evenodd" d="M16.1243 0.681213V16.182H23.8746C28.1551 16.182 31.625 12.712 31.625 8.43158C31.625 4.15117 28.1551 0.681213 23.8746 0.681213H16.1243Z" fill="#FF7262"/>
<path id="vector_4" fill-rule="evenodd" clip-rule="evenodd" d="M0.623535 8.43161C0.623535 12.712 4.09349 16.182 8.37391 16.182H16.1243V0.681244H8.37391C4.09349 0.681244 0.623535 4.1512 0.623535 8.43161Z" fill="#F24E1E"/>
<path id="vector_5" fill-rule="evenodd" clip-rule="evenodd" d="M0.623535 23.9323C0.623535 28.2127 4.09349 31.6827 8.37391 31.6827H16.1243V16.182H8.37391C4.09349 16.182 0.623535 19.6519 0.623535 23.9323Z" fill="#A259FF"/>
</g>
</svg>
